<svg version="1.1" id="Layer_1" xmlns="http://www.w3.org/2000/svg" x="0" y="0" viewBox="0 0 327 123" xml:space="preserve"><style>.st0{fill:#020202}.st1{fill:#0093c9}.st2{fill:#0093d0}</style><path class="st0" d="M34.3 39.7H11v-12h59.4v11.9H47.2v61.3h-13l.1-61.2zM137.7 103.1l-8.8-7.8c-6.2 4.3-13.7 6.9-22.3 6.9-22.5 0-38.2-17-38.2-37.6v-.2c0-20.6 15.9-37.8 38.4-37.8s38.2 17 38.2 37.6v.2c0 8.3-2.7 16.1-7.4 22.5L146 94l-8.3 9.1zm-18.2-16.2l-12.7-10.8 8.3-9.4L128 78.4c2.3-4 3.6-8.7 3.6-13.9v-.2c0-14.2-10.4-26-24.9-26S82 49.9 82 64.1v.2c0 14.2 10.4 25.9 24.9 25.9 4.7.1 9-1.2 12.6-3.3zM156.4 27.7h12.9v61.5h38.5v11.7h-51.3l-.1-73.2z"/><g><path class="st1" d="M273.1 62.5c13.4-6.1 24-16.7 30.2-29.9-10.3-12.6-27.2-19-44.1-15-22 5.2-36.2 26.2-33.5 48.1 16.6 4.7 33.5 3.2 47.4-3.2zM312 50.2c-1-4-2.4-7.8-4.3-11.2-2.6 14-9 26.5-18.3 36.1-11.7 12.2-28.1 19.7-46 20.6 10 7.3 23 10.4 36 7.3 23.5-5.6 38.1-29.2 32.6-52.8z"/><path class="st2" d="M219.5 75c-.2-.2-.3-.5-.5-.7.2.2.4.5.5.7zM220.8 77.1c-.1-.2-.3-.4-.4-.6.2.2.3.4.4.6z"/><path class="st1" d="M281.1 69c16.3-11.4 26.7-30.3 27.2-51.7-1.1 21.1-12.2 39.6-28.9 50.4-16.6 10.8-39 13.9-60.6 6.2.1.1.2.3.2.4.2.2.3.5.5.7l.9 1.5c.1.2.3.4.4.6.1.2.2.4.3.5 21.8 6.8 43.8 2.9 60-8.6z"/></g></svg>